<svg version="1.2" xmlns="http://www.w3.org/2000/svg" viewBox="0 0 1000 274" width="1000" height="274"><style>.a{fill:#fff}</style><path class="a" d="m207.3 133.1v8.1q0 26.9-9.5 47.1-9.5 20.2-27.2 31.2-17.6 11-40.5 11-22.6 0-40.3-10.9-17.7-10.8-27.5-30.9-9.7-20.3-9.8-46.5v-9q0-26.8 9.6-47.2 9.7-20.4 27.3-31.3 17.8-11 40.5-11 22.7 0 40.3 11 17.7 10.9 27.3 31.3 9.8 20.4 9.8 47.1zm-38 8.8v-8.9q0-28.6-10.2-43.5-10.2-14.8-29.2-14.8-18.9 0-29.1 14.7-10.2 14.6-10.4 43v8.8q0 27.9 10.3 43.2 10.2 15.4 29.4 15.4 18.9 0 29-14.7 10.1-14.9 10.2-43.2zm144.7 86.1l-1-13.7q-13.3 16.2-36.9 16.2-21.7 0-33.2-12.5-11.4-12.5-11.6-36.6v-88.5h36v87.3q0 21.1 19.3 21.1 18.3 0 25.2-12.8v-95.6h36.2v135.1zm164.9 0l-34.1-66.5h-29.8v66.5h-37.5v-181.8h67.6q32.2 0 49.7 14.4 17.4 14.3 17.4 40.6 0 18.6-8.1 31-8 12.4-24.3 19.8l39.3 74.3v1.7zm-63.9-151.4v54.5h30.2q14.1 0 21.8-7.1 7.8-7.2 7.8-19.8 0-12.9-7.4-20.3-7.2-7.3-22.3-7.3zm185.5 153.9q-29.7 0-48.4-18.2-18.6-18.3-18.6-48.6v-3.5q0-20.3 7.8-36.3 7.9-16.1 22.2-24.7 14.5-8.8 33-8.8 27.7 0 43.6 17.5 16 17.5 16 49.6v14.7h-86.1q1.8 13.2 10.5 21.2 8.9 8 22.4 8 20.8 0 32.6-15.1l17.7 19.9q-8.1 11.4-22 17.9-13.8 6.4-30.7 6.4zm-4.1-110.9q-10.8 0-17.5 7.3-6.6 7.2-8.5 20.7h50.2v-2.9q-0.3-12-6.5-18.5-6.2-6.6-17.7-6.6zm140.2-31.2c-22 0-44.3 5.9-59.4 16.6l14.4 27.9c9.9-7.9 25-12.8 39.6-12.8 21.5 0 31.7 10 31.7 27.1h-31.7c-41.9 0-59.1 16.9-59.1 41.2 0 23.7 19.2 41.6 51.4 41.6 20.2 0 34.5-6.6 42-19.1v17.1h37.3v-78.5c0-41.7-24.3-61.1-66.2-61.1zm-3.1 114.8c-14.1 0-22.5-6.6-22.5-16.6 0-9.2 5.9-16.1 24.5-16.1h27.4v14c-4.6 12.6-16.1 18.7-29.4 18.7zm105.3 24.8h39.9v-189.7h-39.9zm72 0v-35.8h36.3v35.8z"/></svg>